<svg width="23" height="23" viewBox="0 0 23 23" fill="none" xmlns="http://www.w3.org/2000/svg">
<circle cx="11.5" cy="11.5" r="11.5" fill="#402401"/>
<path fill-rule="evenodd" clip-rule="evenodd" d="M7.99233 5.01816C7.87809 5.0531 7.71638 5.22106 7.68372 5.33873C7.6689 5.39204 7.65672 5.56313 7.65664 5.71889L7.65649 6.0021L7.16714 6.01359C6.72888 6.02388 6.65389 6.03224 6.44899 6.09359C5.7972 6.28874 5.27561 6.80927 5.07098 7.46878L5 7.6975V12.0051V16.3128L5.07098 16.5415C5.27518 17.1997 5.79062 17.715 6.44899 17.9191L6.67778 17.9901H8.87855H11.0793L11.1824 17.9219C11.3411 17.8169 11.4061 17.6927 11.4061 17.4945C11.4061 17.2963 11.3411 17.1721 11.1824 17.0671L11.0794 16.9989L8.94213 16.9862L6.80489 16.9735L6.65867 16.9145C6.37614 16.8004 6.16222 16.5768 6.06252 16.2911C6.01928 16.1673 6.01684 15.9383 6.01684 12.0051C6.01684 8.07195 6.01928 7.84299 6.06252 7.71913C6.16258 7.43246 6.37853 7.20727 6.65867 7.09748C6.78409 7.04833 6.86511 7.03868 7.22815 7.0296L7.65138 7.01901L7.6603 7.35825C7.66829 7.66233 7.67545 7.70757 7.72952 7.79451C7.7627 7.84787 7.83624 7.92221 7.89291 7.95969C7.97875 8.01649 8.02418 8.02788 8.16491 8.02788C8.30564 8.02788 8.35107 8.01649 8.43691 7.95969C8.49358 7.92221 8.56712 7.84787 8.60029 7.79451C8.65429 7.70767 8.66153 7.66223 8.66947 7.36077L8.67831 7.02404H9.81727H10.9562L10.9651 7.36268C10.9734 7.68002 10.9782 7.70779 11.0421 7.80429C11.1475 7.96343 11.2713 8.02788 11.4715 8.02788C11.6102 8.02788 11.6561 8.01629 11.7416 7.95969C11.7983 7.92221 11.8718 7.84787 11.905 7.79451C11.959 7.70767 11.9663 7.66223 11.9742 7.36077L11.983 7.02404H13.1347H14.2864L14.2952 7.36268C14.3035 7.68002 14.3084 7.70779 14.3723 7.80429C14.4777 7.96343 14.6014 8.02788 14.8016 8.02788C14.9404 8.02788 14.9862 8.01629 15.0718 7.95969C15.1284 7.92221 15.202 7.84787 15.2352 7.79451C15.2892 7.70757 15.2964 7.66233 15.3044 7.3583L15.3133 7.01911L15.7493 7.02945C16.1197 7.03822 16.2058 7.04795 16.3219 7.09423C16.6038 7.20653 16.803 7.40296 16.9142 7.67839L16.9733 7.82457L16.986 9.46376L16.9987 11.1029L17.059 11.1999C17.0922 11.2533 17.1657 11.3276 17.2224 11.3651C17.3079 11.4217 17.3538 11.4333 17.4925 11.4333C17.6928 11.4333 17.8165 11.3688 17.9219 11.2097L17.9901 11.1066V9.40208V7.6975L17.9191 7.46878C17.7145 6.80932 17.1931 6.28889 16.5411 6.09354C16.335 6.03176 16.2627 6.02383 15.8127 6.01361L15.3131 6.00228L15.3043 5.66623C15.296 5.35169 15.2911 5.32363 15.2273 5.22724C15.1222 5.06863 14.998 5.00365 14.7998 5.00365C14.6016 5.00365 14.4773 5.06863 14.3723 5.22724C14.3084 5.32373 14.3035 5.35151 14.2952 5.66885L14.2864 6.00749H13.1347H11.983L11.9742 5.67076C11.9663 5.3693 11.959 5.32386 11.905 5.23702C11.8718 5.18365 11.7983 5.10932 11.7416 5.07183C11.6561 5.01523 11.6102 5.00365 11.4715 5.00365C11.2713 5.00365 11.1475 5.0681 11.0421 5.22724C10.9782 5.32373 10.9734 5.35151 10.9651 5.66885L10.9562 6.00749H9.81727H8.67831L8.66947 5.66885C8.66118 5.35151 8.65632 5.32373 8.59241 5.22724C8.55492 5.17061 8.48361 5.09918 8.43399 5.06853C8.33015 5.00436 8.11689 4.98004 7.99233 5.01816ZM7.99233 9.84677C7.8712 9.88382 7.71562 10.0502 7.68064 10.1801C7.61978 10.406 7.7102 10.6435 7.90264 10.7631C8.04683 10.8527 8.29509 10.849 8.43691 10.7552C8.59559 10.6502 8.66062 10.526 8.66062 10.3278C8.66062 10.1322 8.59572 10.0055 8.44416 9.90524C8.33513 9.83309 8.12561 9.80598 7.99233 9.84677ZM10.204 9.84677C10.0828 9.88382 9.92724 10.0502 9.89226 10.1801C9.83141 10.406 9.92183 10.6435 10.1143 10.7631C10.2585 10.8527 10.5067 10.849 10.6485 10.7552C10.8072 10.6502 10.8722 10.526 10.8722 10.3278C10.8722 10.1322 10.8073 10.0055 10.6558 9.90524C10.5468 9.83309 10.3372 9.80598 10.204 9.84677ZM12.4156 9.84677C12.2944 9.88382 12.1389 10.0502 12.1039 10.1801C12.043 10.406 12.1335 10.6435 12.3259 10.7631C12.4701 10.8527 12.7183 10.849 12.8602 10.7552C13.0188 10.6502 13.0839 10.526 13.0839 10.3278C13.0839 10.1322 13.019 10.0055 12.8674 9.90524C12.7584 9.83309 12.5489 9.80598 12.4156 9.84677ZM14.6272 9.84677C14.5061 9.88382 14.3505 10.0502 14.3155 10.1801C14.2547 10.406 14.3451 10.6435 14.5375 10.7631C14.6817 10.8527 14.93 10.849 15.0718 10.7552C15.2305 10.6502 15.2955 10.526 15.2955 10.3278C15.2955 10.1322 15.2306 10.0055 15.079 9.90524C14.97 9.83309 14.7605 9.80598 14.6272 9.84677ZM14.482 11.8896C13.8113 11.995 13.1989 12.3081 12.7346 12.783C12.4928 13.0303 12.3248 13.2703 12.1672 13.5935C11.7493 14.4507 11.7493 15.4047 12.1672 16.2619C12.4777 16.8988 12.9561 17.3774 13.591 17.6862C14.4511 18.1046 15.4026 18.1046 16.2628 17.6862C16.8976 17.3774 17.3761 16.8988 17.6866 16.2619C18.1045 15.4047 18.1045 14.4507 17.6866 13.5935C17.3761 12.9566 16.8976 12.478 16.2628 12.1692C15.6993 11.8951 15.073 11.7968 14.482 11.8896ZM7.99233 12.0578C7.8712 12.0948 7.71562 12.2612 7.68064 12.3911C7.61978 12.617 7.7102 12.8545 7.90264 12.9741C8.04683 13.0637 8.29509 13.06 8.43691 12.9662C8.59559 12.8612 8.66062 12.737 8.66062 12.5388C8.66062 12.3432 8.59572 12.2165 8.44416 12.1162C8.33513 12.0441 8.12561 12.017 7.99233 12.0578ZM10.204 12.0578C10.0828 12.0948 9.92724 12.2612 9.89226 12.3911C9.83141 12.617 9.92183 12.8545 10.1143 12.9741C10.2585 13.0637 10.5067 13.06 10.6485 12.9662C10.8072 12.8612 10.8722 12.737 10.8722 12.5388C10.8722 12.3432 10.8073 12.2165 10.6558 12.1162C10.5468 12.0441 10.3372 12.017 10.204 12.0578ZM15.2869 12.9057C16.1572 13.0758 16.7794 13.6978 16.9495 14.5678C17.1895 15.7949 16.1932 16.9862 14.9269 16.9862C14.3322 16.9862 13.7141 16.6934 13.3433 16.2359C12.7131 15.4584 12.7131 14.397 13.3433 13.6195C13.7999 13.0562 14.5839 12.7683 15.2869 12.9057ZM14.7543 13.4047C14.6351 13.4412 14.4776 13.6082 14.4436 13.7342C14.4253 13.8024 14.4181 14.0606 14.4232 14.4681L14.4312 15.0968L14.4994 15.1997C14.5369 15.2563 14.6112 15.3298 14.6646 15.363C14.7587 15.4214 14.7779 15.4233 15.2955 15.4233C15.8131 15.4233 15.8323 15.4214 15.9264 15.363C15.9797 15.3298 16.0541 15.2563 16.0916 15.1996C16.1855 15.0579 16.1891 14.8097 16.0995 14.6655C15.9997 14.505 15.8721 14.4382 15.6397 14.4247L15.44 14.4132L15.4313 14.0669C15.4235 13.7551 15.4166 13.7109 15.3623 13.6236C15.2424 13.4308 14.979 13.3359 14.7543 13.4047ZM7.99233 14.2688C7.8712 14.3058 7.71562 14.4722 7.68064 14.6021C7.61978 14.828 7.7102 15.0655 7.90264 15.1851C8.04683 15.2747 8.29509 15.271 8.43691 15.1772C8.59559 15.0722 8.66062 14.948 8.66062 14.7498C8.66062 14.5542 8.59572 14.4275 8.44416 14.3272C8.33513 14.2551 8.12561 14.228 7.99233 14.2688ZM10.204 14.2688C10.0828 14.3058 9.92724 14.4722 9.89226 14.6021C9.83141 14.828 9.92183 15.0655 10.1143 15.1851C10.2585 15.2747 10.5067 15.271 10.6485 15.1772C10.8072 15.0722 10.8722 14.948 10.8722 14.7498C10.8722 14.5542 10.8073 14.4275 10.6558 14.3272C10.5468 14.2551 10.3372 14.228 10.204 14.2688Z" fill="#FFEAD8"/>
</svg>
