<?xml version="1.0" encoding="UTF-8"?>
<svg xmlns="http://www.w3.org/2000/svg" version="1.1" viewBox="0 0 115 114">
  <defs>
    <style>
      .cls-1, .cls-2, .cls-3, .cls-4, .cls-5, .cls-6, .cls-7, .cls-8, .cls-9, .cls-10, .cls-11, .cls-12 {
        stroke-width: 0px;
      }

      .cls-1, .cls-6 {
        fill: #00afc1;
      }

      .cls-2, .cls-4 {
        fill: #15d22b;
      }

      .cls-3, .cls-4, .cls-6, .cls-8, .cls-11, .cls-12 {
        fill-rule: evenodd;
      }

      .cls-3, .cls-5 {
        fill: #ff316a;
      }

      .cls-7, .cls-11 {
        fill: #ff741d;
      }

      .cls-8, .cls-9 {
        fill: #ffead8;
      }

      .cls-10, .cls-12 {
        fill: #402401;
      }
    </style>
  </defs>
  <g id="Camada_1" data-name="Camada 1">
    <g id="Camada_2" data-name="Camada 2">
      <rect class="cls-9" x="-135" width="57.5" height="57"/>
      <rect class="cls-10" x="-77.5" width="57.5" height="57"/>
      <rect class="cls-1" x="-135" y="57" width="28.8" height="57"/>
      <rect class="cls-7" x="-106.2" y="57" width="28.8" height="57"/>
      <rect class="cls-2" x="-77.5" y="57" width="28.8" height="57"/>
      <rect class="cls-5" x="-48.8" y="57" width="28.8" height="57"/>
    </g>
  </g>
  <g id="Camada_2-2" data-name="Camada 2">
    <g id="Camada_4" data-name="Camada 4">
      <rect class="cls-1" x="-270" width="115" height="114"/>
      <g>
        <path class="cls-12" d="M-199.1,8.9c-1,1.3-1.8,2.9-1.8,3.6,0,2.3,2.4,6,5.2,8.1,1.5,1.1,2.7,2.6,2.7,3.3,0,2,1.6,1.6,3.2-.9,1.5-2.3,1.6-2-2.5-9.2-1.2-2.1-1.3-3.3-.7-5,.8-2.1.7-2.3-1.7-2.3s-3.2.8-4.4,2.3h0Z"/>
        <path class="cls-12" d="M-231,34.1c-9.5,9.8-17.4,18.1-17.6,18.6-.2.5,1,.9,2.6.9,2.6,0,4.6-1.6,18.2-15.3l15.3-15.3,15.3,15.3c13.5,13.4,15.7,15.3,18.2,15.3s2.8-.3,2.8-.6-2.6-3.3-5.8-6.6l-5.8-6v-12.6h-4.4c-3.3,0-4.4.3-4.4,1.3,0,2.3-1.2,1.5-8.4-5.8-3.9-3.9-7.5-7.1-8-7.1s-8.7,8-18.2,17.8h.2Z"/>
        <path class="cls-12" d="M-220.4,41.1v3.3c0,.2.1.3.3.3h6.5c.2,0,.3,0,.3-.3v-6.5c0-.2-.1-.3-.3-.3h-6.5c-.2,0-.3,0-.3.3v3.3h0Z"/>
        <path class="cls-12" d="M-211.5,41.1v3.3c0,.2.1.3.3.3h6.5c.2,0,.3,0,.3-.3v-6.5c0-.2-.1-.3-.3-.3h-6.5c-.2,0-.3,0-.3.3v3.3h0Z"/>
        <path class="cls-12" d="M-220.4,50v3.3c0,.2.1.3.3.3h6.5c.2,0,.3,0,.3-.3v-6.5c0-.2-.1-.3-.3-.3h-6.5c-.2,0-.3,0-.3.3v3.3h0Z"/>
        <path class="cls-12" d="M-211.5,50v3.2c0,.2.1.3.3.3h6.6c.2,0,.3,0,.3-.3v-6.5c0-.2-.1-.3-.3-.3h-6.6c-.2,0-.3,0-.3.3v3.3Z"/>
        <path class="cls-12" d="M-243.9,55.7c-.5.2-2,.6-3.3.9-1.9.4-2.5,1.2-3,3.6-.4,2.2-1.1,3.1-2.2,3.1s-1.8.4-2.1.8c-1.3,2-9.1,37.8-8.5,38.5.4.4,4.1,0,8.6-.8,10.9-2.2,19.7-1.4,30.9,2.7,10,3.6,12,3.7,18.3,1.2,13.1-5.2,22.6-6.3,34.5-3.9,4.2.8,8.1,1.3,8.5,1s-1.2-9.2-3.7-19.8c-4.1-17.5-4.7-19.3-6.4-19.6-1.3-.2-2.1-1.1-2.5-2.8-.9-4.2-2.5-4.9-11.9-4.9s-9.2.3-13.4,2.3c-2.7,1.3-6.6,3.9-8.7,5.8l-3.9,3.5-3.4-3.2c-5.5-5.3-12.4-8.1-20.2-8.4-3.7-.2-7.2,0-7.7,0h0Z"/>
      </g>
      <g>
        <path class="cls-6" d="M-230.9,61.9c5.6,1.7,11.5,5.5,14.1,9.1,1.6,2.3,1.8,3.9,1.8,14.3v11.7l-4.1-3.7c-6.4-5.9-12.6-8.3-22.3-8.7-4.5-.2-8.2-.5-8.2-.6s1-5.1,2.2-11.1,2.2-11,2.2-11.1.7-.4,1.6-.7c3.3-.9,8.1-.6,12.7.8Z"/>
        <path class="cls-6" d="M-181.6,61c1.6.4,2.2,2,3.8,10,1.1,5.2,2.2,10.3,2.4,11.3.4,1.8,0,1.9-7.8,2.3-9.4.4-15.6,2.7-22.5,8.3l-4,3.2v-23.2l2.7-3.1c6-6.9,17.6-10.9,25.3-8.8h.1Z"/>
        <path class="cls-6" d="M-230.5,92.3c2.9,1.4,6.5,3.8,7.9,5.3l2.6,2.8-5.5-2.2c-7.2-2.9-16.8-4.2-23.9-3.3-3.1.4-5.7.5-5.9.2-.7-1.3,1.2-4.1,3.1-4.6,1.2-.3,5.3-.6,9.2-.7,6.1,0,7.8.3,12.4,2.5h0Z"/>
        <path class="cls-6" d="M-172.4,90.5c1.5.4,2.3,1.3,2.5,2.9l.3,2.3-5.6-.8c-7-1-16.9.3-23.9,3.2-2.9,1.2-5.2,1.8-5.2,1.4,0-1.6,9.3-7.4,14.2-8.9,2.8-.8,14.7-.9,17.7,0h0Z"/>
      </g>
    </g>
  </g>
  <g id="Camada_3" data-name="Camada 3">
    <g id="Camada_3-2" data-name="Camada 3">
      <rect class="cls-10" x="-405" width="115" height="114"/>
      <g>
        <path class="cls-8" d="M-334.1,8.9c-1,1.3-1.8,2.9-1.8,3.6,0,2.3,2.4,6,5.2,8.1,1.5,1.1,2.7,2.6,2.7,3.3,0,2,1.6,1.6,3.2-.9,1.5-2.3,1.6-2-2.5-9.2-1.2-2.1-1.3-3.3-.7-5,.8-2.1.7-2.3-1.7-2.3s-3.2.8-4.4,2.3h0Z"/>
        <path class="cls-8" d="M-366,34.1c-9.5,9.8-17.4,18.1-17.6,18.6s1,.9,2.6.9c2.6,0,4.6-1.6,18.2-15.3l15.3-15.3,15.3,15.3c13.5,13.4,15.7,15.3,18.2,15.3s2.8-.3,2.8-.6-2.6-3.3-5.8-6.6l-5.8-6v-12.6h-4.4c-3.3,0-4.4.3-4.4,1.3,0,2.3-1.2,1.5-8.4-5.8-3.9-3.9-7.5-7.1-8-7.1s-8.7,8-18.2,17.8h.2Z"/>
        <path class="cls-8" d="M-355.4,41.1v3.3c0,.2,0,.3.3.3h6.5c.2,0,.3,0,.3-.3v-6.5c0-.2,0-.3-.3-.3h-6.5c-.2,0-.3,0-.3.3v3.3h0Z"/>
        <path class="cls-8" d="M-346.5,41.1v3.3c0,.2,0,.3.3.3h6.5c.2,0,.3,0,.3-.3v-6.5c0-.2,0-.3-.3-.3h-6.5c-.2,0-.3,0-.3.3v3.3h0Z"/>
        <path class="cls-8" d="M-355.4,50v3.3c0,.2,0,.3.3.3h6.5c.2,0,.3,0,.3-.3v-6.5c0-.2,0-.3-.3-.3h-6.5c-.2,0-.3,0-.3.3v3.3h0Z"/>
        <path class="cls-8" d="M-346.5,50v3.2c0,.2,0,.3.3.3h6.6c.2,0,.3,0,.3-.3v-6.5c0-.2,0-.3-.3-.3h-6.6c-.2,0-.3,0-.3.3,0,0,0,3.3,0,3.3Z"/>
        <path class="cls-8" d="M-378.9,55.7c-.5.2-2,.6-3.3.9-1.9.4-2.5,1.2-3,3.6-.4,2.2-1.1,3.1-2.2,3.1s-1.8.4-2.1.8c-1.3,2-9.1,37.8-8.5,38.5.4.4,4.1,0,8.6-.8,10.9-2.2,19.7-1.4,30.9,2.7,10,3.6,12,3.7,18.3,1.2,13.1-5.2,22.6-6.3,34.5-3.9,4.2.8,8.1,1.3,8.5,1s-1.2-9.2-3.7-19.8c-4.1-17.5-4.7-19.3-6.4-19.6-1.3-.2-2.1-1.1-2.5-2.8-.9-4.2-2.5-4.9-11.9-4.9s-9.2.3-13.4,2.3c-2.7,1.3-6.6,3.9-8.7,5.8l-3.9,3.5-3.4-3.2c-5.5-5.3-12.4-8.1-20.2-8.4-3.7-.2-7.2,0-7.7,0h.1Z"/>
      </g>
      <g>
        <path class="cls-11" d="M-365.9,61.9c5.6,1.7,11.5,5.5,14.1,9.1,1.6,2.3,1.8,3.9,1.8,14.3v11.7l-4.1-3.7c-6.4-5.9-12.6-8.3-22.3-8.7-4.5-.2-8.2-.5-8.2-.6s1-5.1,2.2-11.1,2.2-11,2.2-11.1.7-.4,1.6-.7c3.3-.9,8.1-.6,12.7.8Z"/>
        <path class="cls-4" d="M-316.6,61c1.6.4,2.2,2,3.8,10,1.1,5.2,2.2,10.3,2.4,11.3.4,1.8,0,1.9-7.8,2.3-9.4.4-15.6,2.7-22.5,8.3l-4,3.2v-23.2l2.7-3.1c6-6.9,17.6-10.9,25.3-8.8h0Z"/>
        <path class="cls-6" d="M-365.5,92.3c2.9,1.4,6.5,3.8,7.9,5.3l2.6,2.8-5.5-2.2c-7.2-2.9-16.8-4.2-23.9-3.3-3.1.4-5.7.5-5.9.2-.7-1.3,1.2-4.1,3.1-4.6,1.2-.3,5.3-.6,9.2-.7,6.1,0,7.8.3,12.4,2.5h0Z"/>
        <path class="cls-3" d="M-307.4,90.5c1.5.4,2.3,1.3,2.5,2.9l.3,2.3-5.6-.8c-7-1-16.9.3-23.9,3.2-2.9,1.2-5.2,1.8-5.2,1.4,0-1.6,9.3-7.4,14.2-8.9,2.8-.8,14.7-.9,17.7,0h0Z"/>
      </g>
    </g>
  </g>
  <g id="Camada_4-2" data-name="Camada 4">
    <g id="Camada_1-2" data-name="Camada 1">
      <g>
        <path class="cls-12" d="M70.9,8.8c-1,1.3-1.8,2.9-1.8,3.6,0,2.3,2.4,6,5.2,8.1,1.5,1.1,2.7,2.6,2.7,3.3,0,2,1.6,1.6,3.2-.9,1.5-2.3,1.6-2-2.5-9.2-1.2-2.1-1.3-3.3-.7-5,.8-2.1.7-2.3-1.7-2.3s-3.2.8-4.4,2.3h0Z"/>
        <path class="cls-12" d="M39,34c-9.5,9.8-17.4,18.1-17.6,18.6s1,.9,2.6.9c2.6,0,4.6-1.6,18.2-15.3l15.3-15.3,15.3,15.3c13.5,13.4,15.7,15.3,18.2,15.3s2.8-.3,2.8-.6-2.6-3.3-5.8-6.6l-5.8-6v-12.6h-4.4c-3.3,0-4.4.3-4.4,1.3,0,2.3-1.2,1.5-8.4-5.8-3.9-3.9-7.5-7.1-8-7.1s-8.7,8-18.2,17.8h.2Z"/>
        <path class="cls-12" d="M49.6,41v3.3c0,.2,0,.3.3.3h6.5c.2,0,.3,0,.3-.3v-6.5c0-.2,0-.3-.3-.3h-6.5c-.2,0-.3,0-.3.3v3.3h0Z"/>
        <path class="cls-12" d="M58.5,41v3.3c0,.2,0,.3.3.3h6.5c.2,0,.3,0,.3-.3v-6.5c0-.2,0-.3-.3-.3h-6.5c-.2,0-.3,0-.3.3v3.3h0Z"/>
        <path class="cls-12" d="M49.6,49.9v3.3c0,.2,0,.3.3.3h6.5c.2,0,.3,0,.3-.3v-6.5c0-.2,0-.3-.3-.3h-6.5c-.2,0-.3,0-.3.3v3.3h0Z"/>
        <path class="cls-12" d="M58.5,49.9v3.2c0,.2,0,.3.3.3h6.6c.2,0,.3,0,.3-.3v-6.5c0-.2,0-.3-.3-.3h-6.6c-.2,0-.3,0-.3.3v3.3Z"/>
        <path class="cls-12" d="M26.1,55.6c-.5.2-2,.6-3.3.9-1.9.4-2.5,1.2-3,3.6-.4,2.2-1.1,3.1-2.2,3.1s-1.8.4-2.1.8c-1.3,2-9.1,37.8-8.5,38.5.4.4,4.1,0,8.6-.8,10.9-2.2,19.7-1.4,30.9,2.7,10,3.6,12,3.7,18.3,1.2,13.1-5.2,22.6-6.3,34.5-3.9,4.2.8,8.1,1.3,8.5,1s-1.2-9.2-3.7-19.8c-4.1-17.5-4.7-19.3-6.4-19.6-1.3-.2-2.1-1.1-2.5-2.8-.9-4.2-2.5-4.9-11.9-4.9s-9.2.3-13.4,2.3c-2.7,1.3-6.6,3.9-8.7,5.8l-3.9,3.5-3.4-3.2c-5.5-5.3-12.4-8.1-20.2-8.4-3.7-.2-7.2,0-7.7,0h0Z"/>
      </g>
      <g>
        <path class="cls-11" d="M39.1,61.8c5.6,1.7,11.5,5.5,14.1,9.1,1.6,2.3,1.8,3.9,1.8,14.3v11.7l-4.1-3.7c-6.4-5.9-12.6-8.3-22.3-8.7-4.5-.2-8.2-.5-8.2-.6s1-5.1,2.2-11.1,2.2-11,2.2-11.1.7-.4,1.6-.7c3.3-.9,8.1-.6,12.7.8Z"/>
        <path class="cls-4" d="M88.4,60.9c1.6.4,2.2,2,3.8,10,1.1,5.2,2.2,10.3,2.4,11.3.4,1.8,0,1.9-7.8,2.3-9.4.4-15.6,2.7-22.5,8.3l-4,3.2v-23.2l2.7-3.1c6-6.9,17.6-10.9,25.3-8.8h.1Z"/>
        <path class="cls-6" d="M39.5,92.2c2.9,1.4,6.5,3.8,7.9,5.3l2.6,2.8-5.5-2.2c-7.2-2.9-16.8-4.2-23.9-3.3-3.1.4-5.7.5-5.9.2-.7-1.3,1.2-4.1,3.1-4.6,1.2-.3,5.3-.6,9.2-.7,6.1,0,7.8.3,12.4,2.5h.1Z"/>
        <path class="cls-3" d="M97.6,90.4c1.5.4,2.3,1.3,2.5,2.9l.3,2.3-5.6-.8c-7-1-16.9.3-23.9,3.2-2.9,1.2-5.2,1.8-5.2,1.4,0-1.6,9.3-7.4,14.2-8.9,2.8-.8,14.7-.9,17.7,0h0Z"/>
      </g>
    </g>
  </g>
</svg>