<svg width="26" height="25" viewBox="0 0 26 25" fill="none" xmlns="http://www.w3.org/2000/svg">
<path d="M13.2505 25C11.0579 25 8.90739 24.4213 7.00296 23.3222L2.12265 25L3.12566 19.8431C1.55318 17.6926 0.724365 15.1627 0.724365 12.5002C0.724365 5.60764 6.34348 0 13.2505 0C20.1574 0 25.7766 5.60741 25.7766 12.5002C25.7766 19.3926 20.1581 25 13.2505 25Z" fill="#402401"/>
<path d="M13.2504 20.6664C11.8183 20.6664 10.4132 20.2882 9.16922 19.5699L5.98109 20.6664L6.63593 17.297C5.60902 15.8919 5.06738 14.2398 5.06738 12.4998C5.06738 7.99675 8.73823 4.33356 13.2504 4.33356C17.7626 4.33356 21.4339 7.99675 21.4339 12.4998C21.4339 17.0028 17.7628 20.6662 13.2504 20.6662V20.6664ZM9.31628 18.2345L9.56286 18.3886C10.6742 19.0838 11.9495 19.4514 13.2506 19.4514C17.092 19.4514 20.2168 16.3331 20.2168 12.5C20.2168 8.66689 17.0922 5.54883 13.2506 5.54883C9.40907 5.54883 6.2852 8.66712 6.2852 12.5C6.2852 14.0595 6.79714 15.5373 7.76467 16.7729L7.93563 16.9912L7.57747 18.8322L9.31605 18.2345H9.31628Z" fill="#FFEAD8"/>
<path d="M9.11942 9.3625C9.11942 9.3625 9.59982 8.525 9.99114 8.47732C10.3825 8.42917 10.8865 8.42917 11.0222 8.68449C11.1584 8.93959 11.7657 10.4236 11.7657 10.4236C11.7657 10.4236 11.8698 10.6787 11.71 10.9262C11.5502 11.1734 11.1904 11.5324 11.1904 11.5324C11.1904 11.5324 10.9904 11.7875 11.1904 12.059C11.3904 12.3299 11.7003 12.8287 12.3416 13.4681C12.9819 14.1079 14.2117 14.5639 14.2117 14.5639C14.2117 14.5639 14.3878 14.5875 14.4998 14.4759C14.6114 14.3644 15.2194 13.6065 15.2194 13.6065C15.2194 13.6065 15.4145 13.3556 15.7385 13.5028C16.0621 13.6505 17.465 14.3484 17.465 14.3484C17.465 14.3484 17.6293 14.4081 17.6293 14.6553C17.6293 14.9025 17.5291 15.5076 17.324 15.7123C17.119 15.9171 16.5196 16.5477 15.6186 16.5477C14.7177 16.5477 12.5729 15.8162 11.4298 14.6755C10.2869 13.5345 9.27182 12.3775 9.0322 11.325C8.79212 10.2715 8.82413 9.79584 9.11942 9.36204V9.3625Z" fill="#FFEAD8"/>
</svg>
