<svg width="23" height="23" viewBox="0 0 23 23" fill="none" xmlns="http://www.w3.org/2000/svg">
<circle cx="11.5" cy="11.5" r="11.5" fill="#402401"/>
<path fill-rule="evenodd" clip-rule="evenodd" d="M7.49098 5.02723C7.15775 5.06891 6.58978 5.22426 6.37556 5.33232C5.87439 5.58513 5.22196 6.67097 5.04475 7.54727C4.98359 7.84967 4.98545 8.49706 5.04831 8.78927C5.14185 9.22425 5.35363 9.85479 5.74918 10.8761C6.21212 12.0714 7.06945 13.2797 8.39266 14.6018C9.53663 15.7449 10.5409 16.5013 11.5706 16.9954C11.9305 17.1681 12.0739 17.2258 12.9093 17.5333C13.9438 17.9142 14.2558 17.987 14.8495 17.9865C15.322 17.986 15.5322 17.9516 15.9522 17.8056C16.6938 17.5479 17.481 17.005 17.6785 16.6148C17.8073 16.3604 17.9553 15.7862 17.9893 15.4093C18.0265 14.9966 18.0268 14.997 16.9338 14.3979C16.0805 13.9303 15.7914 13.7635 15.5138 13.5786C15.054 13.2723 14.9077 13.2299 14.6801 13.3367C14.524 13.4099 14.2077 13.7248 13.8821 14.1313C13.5741 14.5157 13.272 14.8289 13.1484 14.892C12.9447 14.9959 12.7689 14.9336 12.0483 14.5021C11.1314 13.953 10.6095 13.5599 10.0257 12.9787C9.44522 12.4008 9.04413 11.8709 8.4921 10.9524C8.05976 10.233 7.99733 10.0575 8.1015 9.85418C8.16438 9.73143 8.47715 9.43052 8.86356 9.12101C9.26994 8.79551 9.58812 8.47702 9.66051 8.32332C9.76651 8.09824 9.7234 7.95108 9.41721 7.49307C9.23143 7.21515 9.06172 6.92197 8.59669 6.07569C8.12984 5.22609 8.06909 5.13341 7.92736 5.05447C7.851 5.01195 7.69227 5.00203 7.49098 5.02723Z" fill="#FFEAD8"/>
</svg>
