<svg width="23" height="23" viewBox="0 0 23 23" fill="none" xmlns="http://www.w3.org/2000/svg">
<path fill-rule="evenodd" clip-rule="evenodd" d="M10.7647 0.0151209C9.67116 0.125443 9.14853 0.218082 8.33511 0.44579C5.30783 1.29331 2.6673 3.47293 1.24428 6.29887C0.723986 7.33212 0.39923 8.29605 0.188305 9.43328C-0.351201 12.3423 0.28126 15.4234 1.92268 17.8827C2.39087 18.5842 2.86955 19.1505 3.55078 19.8087C5.32038 21.5187 7.45478 22.5477 9.99983 22.9177C10.665 23.0145 12.227 23.0269 12.8569 22.9404C15.4867 22.5797 17.6698 21.5449 19.4655 19.8081C21.368 17.968 22.5321 15.6773 22.9185 13.0139C23.0353 12.2081 23.0251 10.6976 22.8973 9.8644C22.4993 7.27093 21.3603 5.04673 19.51 3.24982C17.7628 1.55301 15.5977 0.482593 13.1884 0.124498C12.5937 0.0360874 11.1864 -0.0273971 10.7647 0.0151209ZM12.6544 4.91364C14.3612 5.41706 15.5254 6.79118 15.7353 8.54998C15.8822 9.78147 15.443 10.7089 13.4366 13.4044C12.9451 14.0646 12.3715 14.8669 12.1618 15.1874C11.9521 15.5078 11.7477 15.7826 11.7076 15.7979C11.6139 15.8339 11.4003 15.8339 11.3066 15.7979C11.2665 15.7826 11.0637 15.5102 10.8558 15.1926C10.648 14.875 10.0701 14.0662 9.57168 13.3953C7.55867 10.6858 7.13241 9.78192 7.28057 8.53712C7.50328 6.66601 8.87619 5.18274 10.7197 4.82158C11.2285 4.72193 12.1536 4.76593 12.6544 4.91364ZM11.1099 7.55938C10.8775 7.63375 10.5359 7.96787 10.4425 8.21218C10.3451 8.46675 10.3429 8.85701 10.4377 9.08031C10.5331 9.30482 10.7677 9.55953 10.9854 9.6748C11.2453 9.81238 11.7688 9.81238 12.0288 9.6748C12.2465 9.55953 12.4811 9.30482 12.5764 9.08031C12.6712 8.85701 12.6691 8.46675 12.5717 8.21218C12.473 7.95419 12.1325 7.63213 11.8776 7.55578C11.6639 7.49171 11.3162 7.49338 11.1099 7.55938ZM8.94597 13.3029C9.0958 13.4527 9.12185 13.6729 9.00887 13.8342C8.97112 13.8881 8.81423 13.9983 8.66018 14.079C8.5009 14.1626 8.24107 14.3634 8.05777 14.5446C7.78854 14.8107 7.72325 14.905 7.66157 15.1172C7.39463 16.0355 8.38577 16.89 10.1607 17.2717C10.7887 17.4067 12.1234 17.4191 12.7444 17.2956C14.0422 17.0375 14.943 16.5384 15.2748 15.8934C15.5921 15.2766 15.2398 14.5818 14.3607 14.0901C14.0268 13.9034 13.9367 13.7962 13.9367 13.5853C13.9367 13.3778 14.143 13.1713 14.3503 13.1713C14.5855 13.1713 15.1644 13.5358 15.5673 13.9373C16.1164 14.4846 16.3516 15.1017 16.2399 15.7022C16.0246 16.8599 14.8139 17.7597 12.9704 18.1319C12.3076 18.2657 10.7686 18.2764 10.1348 18.1516C8.22946 17.7765 6.99235 16.8748 6.77427 15.7022C6.62251 14.8861 7.17938 13.9493 8.15419 13.3807C8.58846 13.1274 8.75426 13.1111 8.94597 13.3029Z" fill="#402401"/>
</svg>
