<svg width="26" height="25" viewBox="0 0 26 25" fill="none" xmlns="http://www.w3.org/2000/svg">
<path d="M13.1982 2.25278C16.5429 2.25278 16.9389 2.26551 18.2599 2.32569C19.4812 2.38125 20.1444 2.58495 20.5858 2.75602C21.1298 2.95648 21.622 3.27593 22.0261 3.69097C22.4422 4.09421 22.7624 4.58519 22.963 5.12824C23.1347 5.56875 23.3386 6.23056 23.3942 7.44931C23.4545 8.76736 23.4673 9.16273 23.4673 12.5005C23.4673 15.8382 23.4545 16.2333 23.3942 17.5516C23.3386 18.7704 23.1344 19.4322 22.963 19.8727C22.5415 20.9627 21.6782 21.8245 20.5858 22.2449C20.1444 22.416 19.4812 22.6197 18.2599 22.6752C16.9393 22.7354 16.5431 22.7481 13.1982 22.7481C9.85328 22.7481 9.45732 22.7354 8.13651 22.6752C6.91522 22.6197 6.25203 22.416 5.8106 22.2449C5.26664 22.0444 4.77442 21.725 4.37033 21.31C3.95442 20.9067 3.63408 20.4155 3.43343 19.8727C3.26201 19.4322 3.05788 18.7704 3.00221 17.5516C2.94189 16.2336 2.92914 15.8382 2.92914 12.5005C2.92914 9.16273 2.94189 8.76759 3.00221 7.44931C3.05788 6.23056 3.26201 5.56875 3.43343 5.12824C3.63431 4.58519 3.95442 4.09421 4.37057 3.69097C4.77465 3.27593 5.26664 2.95625 5.81083 2.75602C6.25226 2.58495 6.91545 2.38125 8.13674 2.32569C9.45755 2.26551 9.85375 2.25278 13.1984 2.25278M13.1982 0.000462963C9.79622 0.000462963 9.36964 0.0148148 8.03375 0.0756944C6.70042 0.136343 5.78996 0.347685 4.99316 0.656713C4.15739 0.970602 3.40026 1.4625 2.77465 2.09838C2.13721 2.72268 1.64405 3.47824 1.32951 4.31227C1.02007 5.10741 0.808282 6.01597 0.74774 7.34653C0.686501 8.67963 0.672119 9.10532 0.672119 12.5002C0.672119 15.8951 0.686501 16.3208 0.74774 17.6539C0.808514 18.9845 1.0203 19.8931 1.32997 20.6882C1.64452 21.5222 2.13744 22.2778 2.77465 22.9021C3.40026 23.538 4.15739 24.0301 4.99316 24.3438C5.78996 24.6528 6.70042 24.8641 8.03375 24.9248C9.36987 24.9856 9.79645 25 13.1982 25C16.6 25 17.0268 24.9856 18.3627 24.9248C19.696 24.8641 20.6065 24.6528 21.4033 24.3438C23.0857 23.6944 24.4158 22.3671 25.0667 20.688C25.3764 19.8928 25.5882 18.9843 25.6489 17.6537C25.7099 16.3204 25.7243 15.8947 25.7243 12.5C25.7243 9.10532 25.7099 8.6794 25.6489 7.3463C25.5882 6.01574 25.3764 5.10718 25.0667 4.31204C24.7521 3.47801 24.2592 2.72245 23.622 2.09815C22.9964 1.46204 22.2393 0.969907 21.4033 0.656018C20.6065 0.347222 19.696 0.13588 18.3627 0.075463C17.0268 0.0143518 16.6002 0 13.1982 0V0.000462963Z" fill="#402401"/>
<path d="M13.1983 6.08148C9.64571 6.08148 6.76587 8.95532 6.76587 12.5005C6.76587 16.0456 9.64571 18.9194 13.1983 18.9194C16.7508 18.9194 19.6306 16.0456 19.6306 12.5005C19.6306 8.95532 16.7508 6.08148 13.1983 6.08148ZM13.1983 16.6671C10.8923 16.6671 9.02289 14.8016 9.02289 12.5005C9.02289 10.1993 10.8923 8.3338 13.1983 8.3338C15.5042 8.3338 17.3736 10.1993 17.3736 12.5005C17.3736 14.8016 15.5042 16.6671 13.1983 16.6671Z" fill="#402401"/>
<path d="M19.8845 4.328C20.7147 4.328 21.3876 4.99953 21.3876 5.828C21.3876 6.65648 20.7147 7.328 19.8845 7.328C19.0543 7.328 18.3813 6.65648 18.3813 5.828C18.3813 4.99953 19.0543 4.328 19.8845 4.328Z" fill="#402401"/>
</svg>
