<svg width="26" height="25" viewBox="0 0 26 25" fill="none" xmlns="http://www.w3.org/2000/svg">
<path fill-rule="evenodd" clip-rule="evenodd" d="M13.3027 0C20.2206 0 25.8288 5.59653 25.8288 12.5C25.8288 19.4035 20.2206 25 13.3027 25C6.38482 25 0.776611 19.4035 0.776611 12.5C0.776611 5.59653 6.38459 0 13.3027 0Z" fill="#402401"/>
<path d="M14.9301 24.8951V15.2398H17.6578L18.0194 11.8417H14.9301L14.9347 10.1408C14.9347 9.25441 15.0192 8.77964 16.2947 8.77964H18.0001V5.3808H15.2718C11.9946 5.3808 10.8413 7.02918 10.8413 9.80163V11.8417H8.79834V15.2403H10.8413V24.7581C11.6371 24.9164 12.4599 25 13.3024 25C13.8466 25 14.3903 24.9651 14.9299 24.8951H14.9301Z" fill="#FFEAD8"/>
</svg>
