<svg width="23" height="25" viewBox="0 0 23 25" fill="none" xmlns="http://www.w3.org/2000/svg">
<path fill-rule="evenodd" clip-rule="evenodd" d="M10.6367 1.0108C8.93175 1.17419 7.66366 1.53503 6.228 2.2653C4.52732 3.1303 3.00123 4.49817 1.88849 6.15481C1.41734 6.85624 0.841601 8.04038 0.565157 8.87651C0.342023 9.5514 0.164775 10.3195 0.0564471 11.0809C-0.0188157 11.6099 -0.0188157 13.3859 0.0564471 13.915C0.244942 15.2401 0.595163 16.4009 1.14234 17.514C1.7614 18.7733 2.36778 19.6194 3.36887 20.6205C4.35902 21.6106 5.21827 22.2289 6.43044 22.8236C7.27623 23.2385 7.82233 23.4404 8.67978 23.6555C10.9297 24.2199 13.1863 24.1116 15.3846 23.334C16.0509 23.0983 17.2141 22.5153 17.8121 22.1174C19.454 21.0248 20.8109 19.5162 21.7094 17.7845C22.5222 16.2176 22.929 14.663 22.9924 12.8803C23.0607 10.9617 22.6662 9.13567 21.8126 7.41925C21.252 6.2922 20.628 5.40888 19.7519 4.50227C18.7803 3.49681 17.8273 2.80312 16.5525 2.17321C15.2199 1.51483 13.9783 1.16339 12.5036 1.02713C12.0453 0.984797 11.0034 0.975665 10.6367 1.0108ZM18.1431 7.43549C18.4161 7.58669 18.6415 7.8289 18.7903 8.13081L18.8918 8.33667V12.4979V16.6592L18.7903 16.8651C18.6415 17.167 18.4161 17.4092 18.1431 17.5604L17.9021 17.6939H11.4914H5.08084L4.83975 17.5604C4.56677 17.4092 4.34134 17.167 4.19257 16.8651L4.09113 16.6592V12.4979V8.33667L4.21736 8.07961C4.36933 7.77015 4.66795 7.49496 4.98443 7.37282C5.2117 7.2851 5.32777 7.28366 11.5589 7.29275L17.9021 7.30197L18.1431 7.43549ZM6.49954 8.51175C6.64161 8.64685 11.4078 12.4132 11.4639 12.4347C11.5101 12.4525 16.1782 8.80457 16.4834 8.51225C16.5399 8.45808 15.8327 8.44913 11.4914 8.44913C7.16809 8.44913 6.44321 8.45822 6.49954 8.51175ZM5.28328 12.7351C5.28328 16.2264 5.28715 16.4013 5.36556 16.4723C5.44123 16.5408 5.93145 16.5467 11.4993 16.5467C17.3126 16.5467 17.5536 16.5435 17.6254 16.4642C17.694 16.3884 17.6992 16.0803 17.6886 12.7355L17.6771 9.08938L16.7324 9.84197C12.9672 12.8413 11.7361 13.801 11.6212 13.8262C11.5498 13.8419 11.4347 13.8422 11.3654 13.827C11.2961 13.8118 10.5117 13.222 9.6222 12.5163C8.33617 11.4959 5.99128 9.6348 5.38652 9.15439L5.28328 9.07242V12.7351Z" fill="#402401"/>
</svg>
